
<svg viewBox="0 0 96 32" xmlns="http://www.w3.org/2000/svg">

  <style>

    path {
      fill: none;
      stroke: #808080;
      stroke-width: 0.075;
      stroke-linejoin: round;
      stroke-linecap: round;
    }

    text {
      font-size: 1.4px;
      font-weight: bold;
      font-family: -apple-system, BlinkMacSystemFont, "Segoe UI", "Noto Sans",
        Helvetica, Arial, sans-serif, "Apple Costartr Emoji", "Segoe UI Emoji";
    }

    .names {
      fill: #808080;
      transform: rotate(90deg);
      transform-box: fill-box;
      transform-origin: left;
    }

    .labels {
      fill: #2f81f7;
    }

  </style>

  <!-- chart labels -->
  <text class="labels" x="73.25" y="7.5">47.49 ms</text>
  <text class="labels" x="73.25" y="15">31.66 ms</text>
  <text class="labels" x="73.25" y="22.5">15.83 ms</text>

  <!-- chart axis -->
  <path d="
    M0,0 0,30 72.25,30
    M0,7.5 72.25,7.5
    M0,15 72.25,15
    M0,22.5 72.25,22.5
  "/>

  

  <!-- benchmark name -->
  <text 
    class="names"
    x="10.75" 
    y="1"
  >
    concat
  </text>

  <!-- simple -->
  <rect 
    fill="#5b9cfb" 
    x="13" 
    y="28.204867307363116" 
    height="1.7951326926368818" 
    width="2" 
    rx="0.1"
  />

  <!-- realistic -->
  <rect 
    fill="#2f81f7"
    x="15.25" 
    y="23.82256815174088" 
    height="6.177431848259118" 
    width="2"
    rx="0.1"
  />

  <!-- edge case -->
  <rect 
    fill="#286aca"
    x="17.5" 
    y="2" 
    height="28"
    width="2"
    rx="0.1"
  />

  <!-- benchmark name -->
  <text 
    class="names"
    x="30.5" 
    y="1"
  >
    mutation
  </text>

  <!-- simple -->
  <rect 
    fill="#5b9cfb" 
    x="32.75" 
    y="29.997061213054156" 
    height="0.002938786945845113" 
    width="2" 
    rx="0.1"
  />

  <!-- realistic -->
  <rect 
    fill="#2f81f7"
    x="35" 
    y="29.997002574905565" 
    height="0.0029974250944336134" 
    width="2"
    rx="0.1"
  />

  <!-- edge case -->
  <rect 
    fill="#286aca"
    x="37.25" 
    y="29.997011369478006" 
    height="0.0029886305219938886"
    width="2"
    rx="0.1"
  />

  <!-- benchmark name -->
  <text 
    class="names"
    x="50.25" 
    y="1"
  >
    spread
  </text>

  <!-- simple -->
  <rect 
    fill="#5b9cfb" 
    x="52.5" 
    y="28.892796225800172" 
    height="1.107203774199828" 
    width="2" 
    rx="0.1"
  />

  <!-- realistic -->
  <rect 
    fill="#2f81f7"
    x="54.75" 
    y="26.07382444610269" 
    height="3.9261755538973104" 
    width="2"
    rx="0.1"
  />

  <!-- edge case -->
  <rect 
    fill="#286aca"
    x="57" 
    y="4.846723831655964" 
    height="25.153276168344036"
    width="2"
    rx="0.1"
  />

</svg>
