
<svg class="chart" viewBox="0 0 96 32" xmlns="http://www.w3.org/2000/svg">
  <style>
    .chart .w {
      fill: none;
      stroke: #808080;
      stroke-width: 0.075;
    }
    .chart .t {
      font-size: 1.4px;
      font-weight: bold;
      fill: #808080;
      font-family: -apple-system, BlinkMacSystemFont, "Segoe UI", "Noto Sans", Helvetica, Arial, sans-serif, "Apple Costartr Emoji", "Segoe UI Emoji";
      transform: rotate(90deg);
      transform-box: fill-box;
      transform-origin: left;
    }
    .chart .un {
      font-size: 1.4px;
      font-weight: bold;
      fill: #2f81f7;
      font-family: -apple-system, BlinkMacSystemFont, "Segoe UI", "Noto Sans", Helvetica, Arial, sans-serif, "Apple Costartr Emoji", "Segoe UI Emoji";
    }
    .chart path {
      fill: none;
      stroke: #2f81f7;
      stroke-linejoin: round;
      stroke-linecap: round;
    }
  </style>

  <text class="un" x="73.25" y="7.5" >48.01 ms</text>
  <text class="un" x="73.25" y="15" >32.01 ms</text>
  <text class="un" x="73.25" y="22.5" >16.00 ms</text>

  <path class="w" d="
    M0,0 0,30 72.25,30
    M0,7.5 72.25,7.5
    M0,15 72.25,15
    M0,22.5 72.25,22.5
  "/>

  

  <text x="10.75" y="1" class="t">
    concat
  </text>

  <rect 
    fill="#5b9cfb" 
    x="13" 
    y="28.310881046899805" 
    height="1.6891189531001953" 
    width="2" 
    rx="0.1"
  />

  <rect 
    fill="#2f81f7"
    x="15.25" 
    y="24.459799729265004" 
    height="5.540200270734997" 
    width="2"
    rx="0.1"
  />

  <rect 
    fill="#286aca"
    x="17.5" 
    y="2" 
    height="28"
    width="2"
    rx="0.1"
  />

  <text x="30.5" y="1" class="t">
    mutation
  </text>

  <rect 
    fill="#5b9cfb" 
    x="32.75" 
    y="29.99708271726527" 
    height="0.0029172827347326642" 
    width="2" 
    rx="0.1"
  />

  <rect 
    fill="#2f81f7"
    x="35" 
    y="29.99709434355661" 
    height="0.002905656443388152" 
    width="2"
    rx="0.1"
  />

  <rect 
    fill="#286aca"
    x="37.25" 
    y="29.997081330929923" 
    height="0.00291866907007706"
    width="2"
    rx="0.1"
  />

  <text x="50.25" y="1" class="t">
    spread
  </text>

  <rect 
    fill="#5b9cfb" 
    x="52.5" 
    y="28.917993723630566" 
    height="1.0820062763694354" 
    width="2" 
    rx="0.1"
  />

  <rect 
    fill="#2f81f7"
    x="54.75" 
    y="26.201711550029877" 
    height="3.798288449970122" 
    width="2"
    rx="0.1"
  />

  <rect 
    fill="#286aca"
    x="57" 
    y="5.573740907335292" 
    height="24.426259092664708"
    width="2"
    rx="0.1"
  />

</svg>
