
<svg class="chart" viewBox="0 0 96 32" xmlns="http://www.w3.org/2000/svg">
  <style>
    .chart .bg {
      fill: #eee5;
    }
    .chart .w {
      fill: none;
      stroke: #808080;
      stroke-width: 0.075;
    }
    .chart .c {
      fill: #2f81f7;
    }
    .chart .t {
      font-size: 1.4px;
      font-weight: bold;
      fill: #808080;
      font-family: -apple-system, BlinkMacSystemFont, "Segoe UI", "Noto Sans", Helvetica, Arial, sans-serif, "Apple Costartr Emoji", "Segoe UI Emoji";
      transform: rotate(90deg);
      transform-box: fill-box;
      transform-origin: left;
    }
    .chart .un {
      font-size: 1.4px;
      font-weight: bold;
      fill: #2f81f7;
      font-family: -apple-system, BlinkMacSystemFont, "Segoe UI", "Noto Sans", Helvetica, Arial, sans-serif, "Apple Costartr Emoji", "Segoe UI Emoji";
    }
    .chart path {
      fill: none;
      stroke: #2f81f7;
      stroke-linejoin: round;
      stroke-linecap: round;
    }
  </style>

  <!--<rect class="bg" width="128" height="32" rx="0.15"/>
  <rect 
    class="w"
    x="0"
    y="2"
    width="82.5"
    height="29"
    rx="0.1"
  />-->

  <text class="un" x="83.5" y="7.5" >11.41 ms</text>
  <text class="un" x="83.5" y="15" >7.61 ms</text>
  <text class="un" x="83.5" y="22.5" >3.80 ms</text>

  <path class="w" d="
    M0,0 0,30 82.5,30
    M0,7.5 82.5,7.5
    M0,15 82.5,15
    M0,22.5 82.5,22.5
  "/>

  

  <text x="5.75" y="1" class="t">
    filter
  </text>

  <rect 
    class="c" 
    x="6" 
    y="29.923737233718814" 
    height="0.07626276628118707" 
    width="2" 
    rx="0.1"
  />

  <rect 
    class="c" 
    x="8.25" 
    y="29.469009181376503" 
    height="0.5309908186234974" 
    width="2"
    rx="0.1"
  />

  <rect 
    class="c" 
    x="10.5" 
    y="25.24521481572573" 
    height="4.754785184274268"
    width="2"
    rx="0.1"
  />

  <text x="18.5" y="1" class="t">
    foreach
  </text>

  <rect 
    class="c" 
    x="18.75" 
    y="29.923724049584216" 
    height="0.07627595041578243" 
    width="2" 
    rx="0.1"
  />

  <rect 
    class="c" 
    x="21" 
    y="29.4212054553822" 
    height="0.5787945446177984" 
    width="2"
    rx="0.1"
  />

  <rect 
    class="c" 
    x="23.25" 
    y="25.24460694285827" 
    height="4.755393057141731"
    width="2"
    rx="0.1"
  />

  <text x="31.25" y="1" class="t">
    for in
  </text>

  <rect 
    class="c" 
    x="31.5" 
    y="29.98417597155594" 
    height="0.015824028444060098" 
    width="2" 
    rx="0.1"
  />

  <rect 
    class="c" 
    x="33.75" 
    y="29.98610867608464" 
    height="0.013891323915357759" 
    width="2"
    rx="0.1"
  />

  <rect 
    class="c" 
    x="36" 
    y="29.98557644093348" 
    height="0.014423559066517964"
    width="2"
    rx="0.1"
  />

  <text x="44" y="1" class="t">
    for
  </text>

  <rect 
    class="c" 
    x="44.25" 
    y="29.918667180760693" 
    height="0.08133281923930784" 
    width="2" 
    rx="0.1"
  />

  <rect 
    class="c" 
    x="46.5" 
    y="29.46104162473189" 
    height="0.5389583752681091" 
    width="2"
    rx="0.1"
  />

  <rect 
    class="c" 
    x="48.75" 
    y="25.25654274448317" 
    height="4.743457255516831"
    width="2"
    rx="0.1"
  />

  <text x="56.75" y="1" class="t">
    for of
  </text>

  <rect 
    class="c" 
    x="57" 
    y="29.871416273762872" 
    height="0.1285837262371289" 
    width="2" 
    rx="0.1"
  />

  <rect 
    class="c" 
    x="59.25" 
    y="29.022211075189" 
    height="0.9777889248110002" 
    width="2"
    rx="0.1"
  />

  <rect 
    class="c" 
    x="61.5" 
    y="20.519341369917132" 
    height="9.480658630082868"
    width="2"
    rx="0.1"
  />

  <text x="69.5" y="1" class="t">
    map
  </text>

  <rect 
    class="c" 
    x="69.75" 
    y="29.70023417250771" 
    height="0.29976582749228986" 
    width="2" 
    rx="0.1"
  />

  <rect 
    class="c" 
    x="72" 
    y="27.2039763976052" 
    height="2.796023602394802" 
    width="2"
    rx="0.1"
  />

  <rect 
    class="c" 
    x="74.25" 
    y="2" 
    height="28"
    width="2"
    rx="0.1"
  />

</svg>
