
<svg class="chart" viewBox="0 0 96 32" xmlns="http://www.w3.org/2000/svg">
  <style>
    .chart .bg {
      fill: #eee5;
    }
    .chart .w {
      fill: none;
      stroke: #30363d;
      stroke-width: 0.075;
    }
    .chart .c {
      fill: #2f81f7;
    }
    .chart .t {
      font-size: 1.4px;
      font-weight: bold;
      fill: #30363d;
      font-family: -apple-system, BlinkMacSystemFont, "Segoe UI", "Noto Sans", Helvetica, Arial, sans-serif, "Apple Color Emoji", "Segoe UI Emoji";
      transform: rotate(90deg);
      transform-box: fill-box;
      transform-origin: left;
    }
    .chart .un {
      font-size: 1.4px;
      font-weight: bold;
      fill: #2f81f7;
      font-family: -apple-system, BlinkMacSystemFont, "Segoe UI", "Noto Sans", Helvetica, Arial, sans-serif, "Apple Color Emoji", "Segoe UI Emoji";
    }
    .chart path {
      fill: none;
      stroke: #2f81f7;
      stroke-linejoin: round;
      stroke-linecap: round;
    }
  </style>

  <!--<rect class="bg" width="128" height="32" rx="0.15"/>
  <rect 
    class="w"
    x="0"
    y="2"
    width="56.25"
    height="29"
    rx="0.1"
  />-->

  <text class="un" x="57.25" y="7.5" >11.40 ms</text>
  <text class="un" x="57.25" y="15" >7.60 ms</text>
  <text class="un" x="57.25" y="22.5" >3.80 ms</text>

  <path class="w" d="
    M0
    ,0 0,30 56.25,30
    M0,7.5 56.25,7.5
    M0,15 56.25,15
    M0,22.5 56.25,22.5
  "/>

  

  <text x="1.25" y="1" class="t">filter</text>

  <rect 
    class="c" 
    x="2.25" 
    y="29.923627539019247" 
    height="0.0763724609807517" 
    width="2" 
    rx="0.1"
  />

  <rect 
    class="c" 
    x="4.5" 
    y="29.44749206953363" 
    height="0.5525079304663687" 
    width="2"
    rx="0.1"
  />

  <rect 
    class="c" 
    x="6.75" 
    y="25.24683977513603" 
    height="4.75316022486397"
    width="2"
    rx="0.1"
  />

  <text x="10.25" y="1" class="t">foreach</text>

  <rect 
    class="c" 
    x="11.25" 
    y="29.9119645905242" 
    height="0.08803540947579984" 
    width="2" 
    rx="0.1"
  />

  <rect 
    class="c" 
    x="13.5" 
    y="29.454172129601364" 
    height="0.5458278703986376" 
    width="2"
    rx="0.1"
  />

  <rect 
    class="c" 
    x="15.75" 
    y="25.229795008494833" 
    height="4.770204991505166"
    width="2"
    rx="0.1"
  />

  <text x="19.25" y="1" class="t">for in</text>

  <rect 
    class="c" 
    x="20.25" 
    y="29.987829146007666" 
    height="0.012170853992333325" 
    width="2" 
    rx="0.1"
  />

  <rect 
    class="c" 
    x="22.5" 
    y="29.985508660148902" 
    height="0.014491339851098564" 
    width="2"
    rx="0.1"
  />

  <rect 
    class="c" 
    x="24.75" 
    y="29.987802142558525" 
    height="0.012197857441474272"
    width="2"
    rx="0.1"
  />

  <text x="28.25" y="1" class="t">for</text>

  <rect 
    class="c" 
    x="29.25" 
    y="29.933778691415096" 
    height="0.0662213085849029" 
    width="2" 
    rx="0.1"
  />

  <rect 
    class="c" 
    x="31.5" 
    y="29.507119951131127" 
    height="0.4928800488688713" 
    width="2"
    rx="0.1"
  />

  <rect 
    class="c" 
    x="33.75" 
    y="25.23223858451567" 
    height="4.76776141548433"
    width="2"
    rx="0.1"
  />

  <text x="37.25" y="1" class="t">for of</text>

  <rect 
    class="c" 
    x="38.25" 
    y="29.871206846920902" 
    height="0.12879315307909756" 
    width="2" 
    rx="0.1"
  />

  <rect 
    class="c" 
    x="40.5" 
    y="28.91771785599337" 
    height="1.0822821440066313" 
    width="2"
    rx="0.1"
  />

  <rect 
    class="c" 
    x="42.75" 
    y="20.466348764072315" 
    height="9.533651235927683"
    width="2"
    rx="0.1"
  />

  <text x="46.25" y="1" class="t">map</text>

  <rect 
    class="c" 
    x="47.25" 
    y="29.638139652362547" 
    height="0.36186034763745156" 
    width="2" 
    rx="0.1"
  />

  <rect 
    class="c" 
    x="49.5" 
    y="27.055188846495945" 
    height="2.9448111535040558" 
    width="2"
    rx="0.1"
  />

  <rect 
    class="c" 
    x="51.75" 
    y="2" 
    height="28"
    width="2"
    rx="0.1"
  />

</svg>
