
<svg class="chart" viewBox="0 0 96 32" xmlns="http://www.w3.org/2000/svg">
  <style>
    .chart .bg {
      fill: #eee5;
    }
    .chart .w {
      fill: none;
      stroke: #808080;
      stroke-width: 0.075;
    }
    .chart .t {
      font-size: 1.4px;
      font-weight: bold;
      fill: #808080;
      font-family: -apple-system, BlinkMacSystemFont, "Segoe UI", "Noto Sans", Helvetica, Arial, sans-serif, "Apple Costartr Emoji", "Segoe UI Emoji";
      transform: rotate(90deg);
      transform-box: fill-box;
      transform-origin: left;
    }
    .chart .un {
      font-size: 1.4px;
      font-weight: bold;
      fill: #2f81f7;
      font-family: -apple-system, BlinkMacSystemFont, "Segoe UI", "Noto Sans", Helvetica, Arial, sans-serif, "Apple Costartr Emoji", "Segoe UI Emoji";
    }
    .chart path {
      fill: none;
      stroke: #2f81f7;
      stroke-linejoin: round;
      stroke-linecap: round;
    }
  </style>

  <!--<rect class="bg" width="128" height="32" rx="0.15"/>
  <rect 
    class="w"
    x="0"
    y="2"
    width="82.5"
    height="29"
    rx="0.1"
  />-->

  <text class="un" x="83.5" y="7.5" >11.51 ms</text>
  <text class="un" x="83.5" y="15" >7.67 ms</text>
  <text class="un" x="83.5" y="22.5" >3.84 ms</text>

  <path class="w" d="
    M0,0 0,30 82.5,30
    M0,7.5 82.5,7.5
    M0,15 82.5,15
    M0,22.5 82.5,22.5
  "/>

  

  <text x="3.75" y="1" class="t">
    filter
  </text>

  <rect 
    fill="#5b9cfb" 
    x="6" 
    y="29.924413184315945" 
    height="0.07558681568405429" 
    width="2" 
    rx="0.1"
  />

  <rect 
    fill="#2f81f7"
    x="8.25" 
    y="29.475749706120954" 
    height="0.5242502938790452" 
    width="2"
    rx="0.1"
  />

  <rect 
    fill="#286aca"
    x="10.5" 
    y="25.26567225056463" 
    height="4.73432774943537"
    width="2"
    rx="0.1"
  />

  <text x="16.5" y="1" class="t">
    foreach
  </text>

  <rect 
    fill="#5b9cfb" 
    x="18.75" 
    y="29.930987796348003" 
    height="0.06901220365199762" 
    width="2" 
    rx="0.1"
  />

  <rect 
    fill="#2f81f7"
    x="21" 
    y="29.510205394018623" 
    height="0.48979460598137764" 
    width="2"
    rx="0.1"
  />

  <rect 
    fill="#286aca"
    x="23.25" 
    y="25.252476966612086" 
    height="4.747523033387913"
    width="2"
    rx="0.1"
  />

  <text x="29.25" y="1" class="t">
    for in
  </text>

  <rect 
    fill="#5b9cfb" 
    x="31.5" 
    y="29.984776727807045" 
    height="0.015223272192954138" 
    width="2" 
    rx="0.1"
  />

  <rect 
    fill="#2f81f7"
    x="33.75" 
    y="29.98536131327067" 
    height="0.014638686729329567" 
    width="2"
    rx="0.1"
  />

  <rect 
    fill="#286aca"
    x="36" 
    y="29.985775787538063" 
    height="0.014224212461934909"
    width="2"
    rx="0.1"
  />

  <text x="42" y="1" class="t">
    for
  </text>

  <rect 
    fill="#5b9cfb" 
    x="44.25" 
    y="29.92017171453623" 
    height="0.0798282854637688" 
    width="2" 
    rx="0.1"
  />

  <rect 
    fill="#2f81f7"
    x="46.5" 
    y="29.51248787758896" 
    height="0.4875121224110387" 
    width="2"
    rx="0.1"
  />

  <rect 
    fill="#286aca"
    x="48.75" 
    y="25.254786717062384" 
    height="4.745213282937615"
    width="2"
    rx="0.1"
  />

  <text x="54.75" y="1" class="t">
    for of
  </text>

  <rect 
    fill="#5b9cfb" 
    x="57" 
    y="29.849403126732547" 
    height="0.15059687326745477" 
    width="2" 
    rx="0.1"
  />

  <rect 
    fill="#2f81f7"
    x="59.25" 
    y="28.92737237366424" 
    height="1.07262762633576" 
    width="2"
    rx="0.1"
  />

  <rect 
    fill="#286aca"
    x="61.5" 
    y="20.546122603055398" 
    height="9.453877396944602"
    width="2"
    rx="0.1"
  />

  <text x="67.5" y="1" class="t">
    map
  </text>

  <rect 
    fill="#5b9cfb" 
    x="69.75" 
    y="29.692349811241105" 
    height="0.30765018875889594" 
    width="2" 
    rx="0.1"
  />

  <rect 
    fill="#2f81f7"
    x="72" 
    y="27.195961270026547" 
    height="2.8040387299734535" 
    width="2"
    rx="0.1"
  />

  <rect 
    fill="#286aca"
    x="74.25" 
    y="2" 
    height="28"
    width="2"
    rx="0.1"
  />

</svg>
