
<svg class="chart" viewBox="0 0 96 32" xmlns="http://www.w3.org/2000/svg">
  <style>
    .chart .bg {
      fill: #eee5;
    }
    .chart .w {
      fill: none;
      stroke: #30363d;
      stroke-width: 0.075;
    }
    .chart .c {
      fill: #2f81f7;
    }
    .chart .t {
      font-size: 1.4px;
      font-weight: bold;
      fill: #30363d;
      font-family: -apple-system, BlinkMacSystemFont, "Segoe UI", "Noto Sans", Helvetica, Arial, sans-serif, "Apple Color Emoji", "Segoe UI Emoji";
      transform: rotate(90deg);
      transform-box: fill-box;
      transform-origin: left;
    }
    .chart .un {
      font-size: 1.4px;
      font-weight: bold;
      fill: #2f81f7;
      font-family: -apple-system, BlinkMacSystemFont, "Segoe UI", "Noto Sans", Helvetica, Arial, sans-serif, "Apple Color Emoji", "Segoe UI Emoji";
    }
    .chart path {
      fill: none;
      stroke: #2f81f7;
      stroke-linejoin: round;
      stroke-linecap: round;
    }
  </style>

  <!--<rect class="bg" width="128" height="32" rx="0.15"/>
  <rect 
    class="w"
    x="0"
    y="2"
    width="56.25"
    height="29"
    rx="0.1"
  />-->

  <text class="un" x="57.25" y="7.5" >11.51 ms</text>
  <text class="un" x="57.25" y="15" >7.67 ms</text>
  <text class="un" x="57.25" y="22.5" >3.84 ms</text>

  <path class="w" d="
    M0
    ,0 0,30 56.25,30
    M0,7.5 56.25,7.5
    M0,15 56.25,15
    M0,22.5 56.25,22.5
  "/>

  

  <text x="1.25" y="1" class="t">filter</text>

  <rect 
    class="c" 
    x="2.25" 
    y="29.924338075548235" 
    height="0.07566192445176526" 
    width="2" 
    rx="0.1"
  />

  <rect 
    class="c" 
    x="4.5" 
    y="29.426635911707855" 
    height="0.5733640882921464" 
    width="2"
    rx="0.1"
  />

  <rect 
    class="c" 
    x="6.75" 
    y="25.249649213328055" 
    height="4.750350786671945"
    width="2"
    rx="0.1"
  />

  <text x="10.25" y="1" class="t">foreach</text>

  <rect 
    class="c" 
    x="11.25" 
    y="29.92428124435406" 
    height="0.07571875564594216" 
    width="2" 
    rx="0.1"
  />

  <rect 
    class="c" 
    x="13.5" 
    y="29.426649260181982" 
    height="0.5733507398180187" 
    width="2"
    rx="0.1"
  />

  <rect 
    class="c" 
    x="15.75" 
    y="25.298826842833094" 
    height="4.701173157166908"
    width="2"
    rx="0.1"
  />

  <text x="19.25" y="1" class="t">for in</text>

  <rect 
    class="c" 
    x="20.25" 
    y="29.98428721517613" 
    height="0.01571278482386714" 
    width="2" 
    rx="0.1"
  />

  <rect 
    class="c" 
    x="22.5" 
    y="29.987635251944795" 
    height="0.012364748055206855" 
    width="2"
    rx="0.1"
  />

  <rect 
    class="c" 
    x="24.75" 
    y="29.984564648198354" 
    height="0.01543535180164725"
    width="2"
    rx="0.1"
  />

  <text x="28.25" y="1" class="t">for</text>

  <rect 
    class="c" 
    x="29.25" 
    y="29.92248280823388" 
    height="0.07751719176611928" 
    width="2" 
    rx="0.1"
  />

  <rect 
    class="c" 
    x="31.5" 
    y="29.512216069775207" 
    height="0.48778393022479444" 
    width="2"
    rx="0.1"
  />

  <rect 
    class="c" 
    x="33.75" 
    y="25.296550253125034" 
    height="4.703449746874968"
    width="2"
    rx="0.1"
  />

  <text x="37.25" y="1" class="t">for of</text>

  <rect 
    class="c" 
    x="38.25" 
    y="29.849240576239303" 
    height="0.15075942376069562" 
    width="2" 
    rx="0.1"
  />

  <rect 
    class="c" 
    x="40.5" 
    y="28.51091061370903" 
    height="1.4890893862909695" 
    width="2"
    rx="0.1"
  />

  <rect 
    class="c" 
    x="42.75" 
    y="20.587743423645684" 
    height="9.412256576354316"
    width="2"
    rx="0.1"
  />

  <text x="46.25" y="1" class="t">map</text>

  <rect 
    class="c" 
    x="47.25" 
    y="29.647365190560265" 
    height="0.3526348094397353" 
    width="2" 
    rx="0.1"
  />

  <rect 
    class="c" 
    x="49.5" 
    y="27.227417406533444" 
    height="2.7725825934665544" 
    width="2"
    rx="0.1"
  />

  <rect 
    class="c" 
    x="51.75" 
    y="2" 
    height="28"
    width="2"
    rx="0.1"
  />

</svg>
