
<svg class="chart" viewBox="0 0 96 32" xmlns="http://www.w3.org/2000/svg">
  <style>
    .chart .bg {
      fill: #eee5;
    }
    .chart .w {
      fill: none;
      stroke: #30363d;
      stroke-width: 0.075;
    }
    .chart .c {
      fill: #2f81f7;
    }
    .chart .t {
      font-size: 1.4px;
      font-weight: bold;
      fill: #30363d;
      font-family: -apple-system, BlinkMacSystemFont, "Segoe UI", "Noto Sans", Helvetica, Arial, sans-serif, "Apple Color Emoji", "Segoe UI Emoji";
      transform: rotate(90deg);
      transform-box: fill-box;
      transform-origin: left;
    }
    .chart .un {
      font-size: 1.4px;
      font-weight: bold;
      fill: #2f81f7;
      font-family: -apple-system, BlinkMacSystemFont, "Segoe UI", "Noto Sans", Helvetica, Arial, sans-serif, "Apple Color Emoji", "Segoe UI Emoji";
    }
    .chart path {
      fill: none;
      stroke: #2f81f7;
      stroke-linejoin: round;
      stroke-linecap: round;
    }
  </style>

  <!--<rect class="bg" width="128" height="32" rx="0.15"/>
  <rect 
    class="w"
    x="0"
    y="2"
    width="56.25"
    height="29"
    rx="0.1"
  />-->

  <text class="un" x="57.25" y="7.5" >192 μs</text>
  <text class="un" x="57.25" y="15" >128 μs</text>
  <text class="un" x="57.25" y="22.5" >64 μs</text>

  <path class="w" d="
    M0
    ,0 0,30 56.25,30
    M0,7.5 56.25,7.5
    M0,15 56.25,15
    M0,22.5 56.25,22.5
  "/>

  

  <text x="2.25" y="1" class="t">filter</text>

  <rect 
    class="c" 
    x="2.25" 
    y="29.6838358892733" 
    height="0.316164110726699" 
    width="2" 
    rx="0.1"
  />

  <rect 
    class="c" 
    x="4.5" 
    y="28.72245384169008" 
    height="1.2775461583099195" 
    width="2"
    rx="0.1"
  />

  <rect 
    class="c" 
    x="6.75" 
    y="18.525529963619032" 
    height="11.474470036380968"
    width="2"
    rx="0.1"
  />

  <text x="11.25" y="1" class="t">foreach</text>

  <rect 
    class="c" 
    x="11.25" 
    y="29.676793561825683" 
    height="0.3232064381743161" 
    width="2" 
    rx="0.1"
  />

  <rect 
    class="c" 
    x="13.5" 
    y="28.821175066768873" 
    height="1.1788249332311262" 
    width="2"
    rx="0.1"
  />

  <rect 
    class="c" 
    x="15.75" 
    y="19.351375263175083" 
    height="10.648624736824917"
    width="2"
    rx="0.1"
  />

  <text x="20.25" y="1" class="t">for in</text>

  <rect 
    class="c" 
    x="20.25" 
    y="29.397580558539715" 
    height="0.6024194414602841" 
    width="2" 
    rx="0.1"
  />

  <rect 
    class="c" 
    x="22.5" 
    y="26.672265357504756" 
    height="3.327734642495246" 
    width="2"
    rx="0.1"
  />

  <rect 
    class="c" 
    x="24.75" 
    y="2" 
    height="28"
    width="2"
    rx="0.1"
  />

  <text x="29.25" y="1" class="t">for</text>

  <rect 
    class="c" 
    x="29.25" 
    y="29.786463012777592" 
    height="0.213536987222409" 
    width="2" 
    rx="0.1"
  />

  <rect 
    class="c" 
    x="31.5" 
    y="29.152882683938696" 
    height="0.8471173160613055" 
    width="2"
    rx="0.1"
  />

  <rect 
    class="c" 
    x="33.75" 
    y="28.355757542066385" 
    height="1.6442424579336137"
    width="2"
    rx="0.1"
  />

  <text x="38.25" y="1" class="t">for of</text>

  <rect 
    class="c" 
    x="38.25" 
    y="29.291644171026036" 
    height="0.7083558289739645" 
    width="2" 
    rx="0.1"
  />

  <rect 
    class="c" 
    x="40.5" 
    y="28.998689128644248" 
    height="1.0013108713557533" 
    width="2"
    rx="0.1"
  />

  <rect 
    class="c" 
    x="42.75" 
    y="28.659146560321407" 
    height="1.3408534396785925"
    width="2"
    rx="0.1"
  />

  <text x="47.25" y="1" class="t">map</text>

  <rect 
    class="c" 
    x="47.25" 
    y="29.620731305937575" 
    height="0.37926869406242364" 
    width="2" 
    rx="0.1"
  />

  <rect 
    class="c" 
    x="49.5" 
    y="28.32521430287291" 
    height="1.674785697127089" 
    width="2"
    rx="0.1"
  />

  <rect 
    class="c" 
    x="51.75" 
    y="15.894662387435421" 
    height="14.105337612564579"
    width="2"
    rx="0.1"
  />

</svg>
