
<svg class="chart" viewBox="0 0 96 32" xmlns="http://www.w3.org/2000/svg">
  <style>
    .chart .bg {
      fill: #eee5;
    }
    .chart .w {
      fill: none;
      stroke: #808080;
      stroke-width: 0.075;
    }
    .chart .t {
      font-size: 1.4px;
      font-weight: bold;
      fill: #808080;
      font-family: -apple-system, BlinkMacSystemFont, "Segoe UI", "Noto Sans", Helvetica, Arial, sans-serif, "Apple Costartr Emoji", "Segoe UI Emoji";
      transform: rotate(90deg);
      transform-box: fill-box;
      transform-origin: left;
    }
    .chart .un {
      font-size: 1.4px;
      font-weight: bold;
      fill: #2f81f7;
      font-family: -apple-system, BlinkMacSystemFont, "Segoe UI", "Noto Sans", Helvetica, Arial, sans-serif, "Apple Costartr Emoji", "Segoe UI Emoji";
    }
    .chart path {
      fill: none;
      stroke: #2f81f7;
      stroke-linejoin: round;
      stroke-linecap: round;
    }
  </style>

  <!--<rect class="bg" width="128" height="32" rx="0.15"/>
  <rect 
    class="w"
    x="0"
    y="2"
    width="82.5"
    height="29"
    rx="0.1"
  />-->

  <text class="un" x="83.5" y="7.5" >11.45 ms</text>
  <text class="un" x="83.5" y="15" >7.64 ms</text>
  <text class="un" x="83.5" y="22.5" >3.82 ms</text>

  <path class="w" d="
    M0,0 0,30 82.5,30
    M0,7.5 82.5,7.5
    M0,15 82.5,15
    M0,22.5 82.5,22.5
  "/>

  

  <text x="3.75" y="1" class="t">
    filter
  </text>

  <rect 
    fill="#5b9cfb" 
    x="6" 
    y="29.939591997208442" 
    height="0.0604080027915586" 
    width="2" 
    rx="0.1"
  />

  <rect 
    fill="#2f81f7"
    x="8.25" 
    y="29.487977474310988" 
    height="0.5120225256890141" 
    width="2"
    rx="0.1"
  />

  <rect 
    fill="#286aca"
    x="10.5" 
    y="25.28422751855225" 
    height="4.715772481447751"
    width="2"
    rx="0.1"
  />

  <text x="16.5" y="1" class="t">
    foreach
  </text>

  <rect 
    fill="#5b9cfb" 
    x="18.75" 
    y="29.926886221288353" 
    height="0.07311377871164913" 
    width="2" 
    rx="0.1"
  />

  <rect 
    fill="#2f81f7"
    x="21" 
    y="29.438230825969555" 
    height="0.5617691740304452" 
    width="2"
    rx="0.1"
  />

  <rect 
    fill="#286aca"
    x="23.25" 
    y="25.27724889217889" 
    height="4.722751107821113"
    width="2"
    rx="0.1"
  />

  <text x="29.25" y="1" class="t">
    for in
  </text>

  <rect 
    fill="#5b9cfb" 
    x="31.5" 
    y="29.999125752100664" 
    height="0.0008742478993357705" 
    width="2" 
    rx="0.1"
  />

  <rect 
    fill="#2f81f7"
    x="33.75" 
    y="29.998609446058545" 
    height="0.0013905539414553864" 
    width="2"
    rx="0.1"
  />

  <rect 
    fill="#286aca"
    x="36" 
    y="29.999084145856685" 
    height="0.0009158541433167124"
    width="2"
    rx="0.1"
  />

  <text x="42" y="1" class="t">
    for
  </text>

  <rect 
    fill="#5b9cfb" 
    x="44.25" 
    y="29.933157730899858" 
    height="0.06684226910014276" 
    width="2" 
    rx="0.1"
  />

  <rect 
    fill="#2f81f7"
    x="46.5" 
    y="29.524458987708634" 
    height="0.47554101229136647" 
    width="2"
    rx="0.1"
  />

  <rect 
    fill="#286aca"
    x="48.75" 
    y="25.26226865217319" 
    height="4.737731347826809"
    width="2"
    rx="0.1"
  />

  <text x="54.75" y="1" class="t">
    for of
  </text>

  <rect 
    fill="#5b9cfb" 
    x="57" 
    y="29.885620409092823" 
    height="0.11437959090717789" 
    width="2" 
    rx="0.1"
  />

  <rect 
    fill="#2f81f7"
    x="59.25" 
    y="28.92622157122086" 
    height="1.0737784287791379" 
    width="2"
    rx="0.1"
  />

  <rect 
    fill="#286aca"
    x="61.5" 
    y="20.510415311377756" 
    height="9.489584688622244"
    width="2"
    rx="0.1"
  />

  <text x="67.5" y="1" class="t">
    map
  </text>

  <rect 
    fill="#5b9cfb" 
    x="69.75" 
    y="29.65087092208405" 
    height="0.3491290779159496" 
    width="2" 
    rx="0.1"
  />

  <rect 
    fill="#2f81f7"
    x="72" 
    y="27.201410274297768" 
    height="2.7985897257022314" 
    width="2"
    rx="0.1"
  />

  <rect 
    fill="#286aca"
    x="74.25" 
    y="2" 
    height="28"
    width="2"
    rx="0.1"
  />

</svg>
