
<svg class="chart" viewBox="0 0 96 32" xmlns="http://www.w3.org/2000/svg">
  <style>
    .chart .bg {
      fill: #eee5;
    }
    .chart .w {
      fill: none;
      stroke: #30363d;
      stroke-width: 0.075;
    }
    .chart .c {
      fill: #2f81f7;
    }
    .chart .t {
      font-size: 1.4px;
      font-weight: bold;
      fill: #30363d;
      font-family: -apple-system, BlinkMacSystemFont, "Segoe UI", "Noto Sans", Helvetica, Arial, sans-serif, "Apple Color Emoji", "Segoe UI Emoji";
      transform: rotate(90deg);
      transform-box: fill-box;
      transform-origin: left;
    }
    .chart .un {
      font-size: 1.4px;
      font-weight: bold;
      fill: #2f81f7;
      font-family: -apple-system, BlinkMacSystemFont, "Segoe UI", "Noto Sans", Helvetica, Arial, sans-serif, "Apple Color Emoji", "Segoe UI Emoji";
    }
    .chart path {
      fill: none;
      stroke: #2f81f7;
      stroke-linejoin: round;
      stroke-linecap: round;
    }
  </style>

  <!--<rect class="bg" width="128" height="32" rx="0.15"/>
  <rect 
    class="w"
    x="0"
    y="2"
    width="56.25"
    height="29"
    rx="0.1"
  />-->

  <text class="un" x="57.25" y="7.5" >11.41 ms</text>
  <text class="un" x="57.25" y="15" >7.60 ms</text>
  <text class="un" x="57.25" y="22.5" >3.80 ms</text>

  <path class="w" d="
    M0
    ,0 0,30 56.25,30
    M0,7.5 56.25,7.5
    M0,15 56.25,15
    M0,22.5 56.25,22.5
  "/>

  

  <text x="1.25" y="1" class="t">filter</text>

  <rect 
    class="c" 
    x="2.25" 
    y="29.92369048285162" 
    height="0.07630951714838063" 
    width="2" 
    rx="0.1"
  />

  <rect 
    class="c" 
    x="4.5" 
    y="29.40260825420768" 
    height="0.5973917457923187" 
    width="2"
    rx="0.1"
  />

  <rect 
    class="c" 
    x="6.75" 
    y="25.213425340010676" 
    height="4.786574659989324"
    width="2"
    rx="0.1"
  />

  <text x="10.25" y="1" class="t">foreach</text>

  <rect 
    class="c" 
    x="11.25" 
    y="29.923702802606854" 
    height="0.07629719739314395" 
    width="2" 
    rx="0.1"
  />

  <rect 
    class="c" 
    x="13.5" 
    y="29.466495846947403" 
    height="0.5335041530525972" 
    width="2"
    rx="0.1"
  />

  <rect 
    class="c" 
    x="15.75" 
    y="25.257508871596514" 
    height="4.7424911284034845"
    width="2"
    rx="0.1"
  />

  <text x="19.25" y="1" class="t">for in</text>

  <rect 
    class="c" 
    x="20.25" 
    y="29.98563302820555" 
    height="0.014366971794447892" 
    width="2" 
    rx="0.1"
  />

  <rect 
    class="c" 
    x="22.5" 
    y="29.98616453451686" 
    height="0.013835465483141443" 
    width="2"
    rx="0.1"
  />

  <rect 
    class="c" 
    x="24.75" 
    y="29.98431658817268" 
    height="0.015683411827322868"
    width="2"
    rx="0.1"
  />

  <text x="28.25" y="1" class="t">for</text>

  <rect 
    class="c" 
    x="29.25" 
    y="29.93241375433885" 
    height="0.06758624566115141" 
    width="2" 
    rx="0.1"
  />

  <rect 
    class="c" 
    x="31.5" 
    y="29.418548072424308" 
    height="0.5814519275756925" 
    width="2"
    rx="0.1"
  />

  <rect 
    class="c" 
    x="33.75" 
    y="25.24896608577275" 
    height="4.751033914227252"
    width="2"
    rx="0.1"
  />

  <text x="37.25" y="1" class="t">for of</text>

  <rect 
    class="c" 
    x="38.25" 
    y="29.84792714209212" 
    height="0.15207285790787978" 
    width="2" 
    rx="0.1"
  />

  <rect 
    class="c" 
    x="40.5" 
    y="28.568933176786803" 
    height="1.4310668232131962" 
    width="2"
    rx="0.1"
  />

  <rect 
    class="c" 
    x="42.75" 
    y="20.506640317920603" 
    height="9.493359682079397"
    width="2"
    rx="0.1"
  />

  <text x="46.25" y="1" class="t">map</text>

  <rect 
    class="c" 
    x="47.25" 
    y="29.700014623996875" 
    height="0.29998537600312475" 
    width="2" 
    rx="0.1"
  />

  <rect 
    class="c" 
    x="49.5" 
    y="27.215073626301255" 
    height="2.784926373698747" 
    width="2"
    rx="0.1"
  />

  <rect 
    class="c" 
    x="51.75" 
    y="2" 
    height="28"
    width="2"
    rx="0.1"
  />

</svg>
