
<svg class="chart" viewBox="0 0 96 32" xmlns="http://www.w3.org/2000/svg">
  <style>
    .chart .bg {
      fill: #eee5;
    }
    .chart .w {
      fill: none;
      stroke: #808080;
      stroke-width: 0.075;
    }
    .chart .t {
      font-size: 1.4px;
      font-weight: bold;
      fill: #808080;
      font-family: -apple-system, BlinkMacSystemFont, "Segoe UI", "Noto Sans", Helvetica, Arial, sans-serif, "Apple Costartr Emoji", "Segoe UI Emoji";
      transform: rotate(90deg);
      transform-box: fill-box;
      transform-origin: left;
    }
    .chart .un {
      font-size: 1.4px;
      font-weight: bold;
      fill: #2f81f7;
      font-family: -apple-system, BlinkMacSystemFont, "Segoe UI", "Noto Sans", Helvetica, Arial, sans-serif, "Apple Costartr Emoji", "Segoe UI Emoji";
    }
    .chart path {
      fill: none;
      stroke: #2f81f7;
      stroke-linejoin: round;
      stroke-linecap: round;
    }
  </style>

  <!--<rect class="bg" width="128" height="32" rx="0.15"/>
  <rect 
    class="w"
    x="0"
    y="2"
    width="82.5"
    height="29"
    rx="0.1"
  />-->

  <text class="un" x="83.5" y="7.5" >10.61 ms</text>
  <text class="un" x="83.5" y="15" >7.07 ms</text>
  <text class="un" x="83.5" y="22.5" >3.54 ms</text>

  <path class="w" d="
    M0,0 0,30 82.5,30
    M0,7.5 82.5,7.5
    M0,15 82.5,15
    M0,22.5 82.5,22.5
  "/>

  

  <text x="3.75" y="1" class="t">
    filter
  </text>

  <rect 
    fill="#5b9cfb" 
    x="6" 
    y="29.917357503251218" 
    height="0.08264249674878074" 
    width="2" 
    rx="0.1"
  />

  <rect 
    fill="#2f81f7"
    x="8.25" 
    y="29.40110638306497" 
    height="0.5988936169350303" 
    width="2"
    rx="0.1"
  />

  <rect 
    fill="#286aca"
    x="10.5" 
    y="24.899615565900014" 
    height="5.100384434099985"
    width="2"
    rx="0.1"
  />

  <text x="16.5" y="1" class="t">
    foreach
  </text>

  <rect 
    fill="#5b9cfb" 
    x="18.75" 
    y="29.92989615912978" 
    height="0.07010384087022149" 
    width="2" 
    rx="0.1"
  />

  <rect 
    fill="#2f81f7"
    x="21" 
    y="29.377382151020512" 
    height="0.6226178489794877" 
    width="2"
    rx="0.1"
  />

  <rect 
    fill="#286aca"
    x="23.25" 
    y="24.895157725925404" 
    height="5.104842274074595"
    width="2"
    rx="0.1"
  />

  <text x="29.25" y="1" class="t">
    for in
  </text>

  <rect 
    fill="#5b9cfb" 
    x="31.5" 
    y="29.983277478269788" 
    height="0.01672252173021421" 
    width="2" 
    rx="0.1"
  />

  <rect 
    fill="#2f81f7"
    x="33.75" 
    y="29.983520246761625" 
    height="0.016479753238375507" 
    width="2"
    rx="0.1"
  />

  <rect 
    fill="#286aca"
    x="36" 
    y="29.983206472538303" 
    height="0.01679352746169642"
    width="2"
    rx="0.1"
  />

  <text x="42" y="1" class="t">
    for
  </text>

  <rect 
    fill="#5b9cfb" 
    x="44.25" 
    y="29.912980969280294" 
    height="0.08701903071970617" 
    width="2" 
    rx="0.1"
  />

  <rect 
    fill="#2f81f7"
    x="46.5" 
    y="29.471900811117457" 
    height="0.5280991888825427" 
    width="2"
    rx="0.1"
  />

  <rect 
    fill="#286aca"
    x="48.75" 
    y="24.895521038053573" 
    height="5.104478961946428"
    width="2"
    rx="0.1"
  />

  <text x="54.75" y="1" class="t">
    for of
  </text>

  <rect 
    fill="#5b9cfb" 
    x="57" 
    y="29.847793389025462" 
    height="0.15220661097453986" 
    width="2" 
    rx="0.1"
  />

  <rect 
    fill="#2f81f7"
    x="59.25" 
    y="28.887265300761253" 
    height="1.112734699238745" 
    width="2"
    rx="0.1"
  />

  <rect 
    fill="#286aca"
    x="61.5" 
    y="19.80023165460037" 
    height="10.19976834539963"
    width="2"
    rx="0.1"
  />

  <text x="67.5" y="1" class="t">
    map
  </text>

  <rect 
    fill="#5b9cfb" 
    x="69.75" 
    y="29.617462303734587" 
    height="0.3825376962654142" 
    width="2" 
    rx="0.1"
  />

  <rect 
    fill="#2f81f7"
    x="72" 
    y="27.192051660044513" 
    height="2.807948339955489" 
    width="2"
    rx="0.1"
  />

  <rect 
    fill="#286aca"
    x="74.25" 
    y="2" 
    height="28"
    width="2"
    rx="0.1"
  />

</svg>
