
<svg class="chart" viewBox="0 0 96 32" xmlns="http://www.w3.org/2000/svg">
  <style>
    .chart .bg {
      fill: #eee5;
    }
    .chart .w {
      fill: none;
      stroke: #30363d;
      stroke-width: 0.075;
    }
    .chart .c {
      fill: #2f81f7;
    }
    .chart .t {
      font-size: 1.4px;
      font-weight: bold;
      fill: #30363d;
      font-family: -apple-system, BlinkMacSystemFont, "Segoe UI", "Noto Sans", Helvetica, Arial, sans-serif, "Apple Color Emoji", "Segoe UI Emoji";
      transform: rotate(90deg);
      transform-box: fill-box;
      transform-origin: left;
    }
    .chart .un {
      font-size: 1.4px;
      font-weight: bold;
      fill: #2f81f7;
      font-family: -apple-system, BlinkMacSystemFont, "Segoe UI", "Noto Sans", Helvetica, Arial, sans-serif, "Apple Color Emoji", "Segoe UI Emoji";
    }
    .chart path {
      fill: none;
      stroke: #2f81f7;
      stroke-linejoin: round;
      stroke-linecap: round;
    }
  </style>

  <!--<rect class="bg" width="128" height="32" rx="0.15"/>
  <rect 
    class="w"
    x="0"
    y="2"
    width="56.25"
    height="29"
    rx="0.1"
  />-->

  <text class="un" x="57.25" y="7.5" >10.61 ms</text>
  <text class="un" x="57.25" y="15" >7.07 ms</text>
  <text class="un" x="57.25" y="22.5" >3.54 ms</text>

  <path class="w" d="
    M0
    ,0 0,30 56.25,30
    M0,7.5 56.25,7.5
    M0,15 56.25,15
    M0,22.5 56.25,22.5
  "/>

  

  <text x="1.25" y="1" class="t">filter</text>

  <rect 
    class="c" 
    x="2.25" 
    y="29.917165636405525" 
    height="0.08283436359447584" 
    width="2" 
    rx="0.1"
  />

  <rect 
    class="c" 
    x="4.5" 
    y="29.468305188053666" 
    height="0.5316948119463355" 
    width="2"
    rx="0.1"
  />

  <rect 
    class="c" 
    x="6.75" 
    y="24.900441599715364" 
    height="5.099558400284636"
    width="2"
    rx="0.1"
  />

  <text x="10.25" y="1" class="t">foreach</text>

  <rect 
    class="c" 
    x="11.25" 
    y="29.917292532942355" 
    height="0.0827074670576455" 
    width="2" 
    rx="0.1"
  />

  <rect 
    class="c" 
    x="13.5" 
    y="29.470451476910974" 
    height="0.5295485230890273" 
    width="2"
    rx="0.1"
  />

  <rect 
    class="c" 
    x="15.75" 
    y="24.898549987619656" 
    height="5.101450012380345"
    width="2"
    rx="0.1"
  />

  <text x="19.25" y="1" class="t">for in</text>

  <rect 
    class="c" 
    x="20.25" 
    y="29.980229949597543" 
    height="0.019770050402455445" 
    width="2" 
    rx="0.1"
  />

  <rect 
    class="c" 
    x="22.5" 
    y="29.986861875212362" 
    height="0.013138124787637817" 
    width="2"
    rx="0.1"
  />

  <rect 
    class="c" 
    x="24.75" 
    y="29.98388042001957" 
    height="0.016119579980428348"
    width="2"
    rx="0.1"
  />

  <text x="28.25" y="1" class="t">for</text>

  <rect 
    class="c" 
    x="29.25" 
    y="29.915062734384968" 
    height="0.08493726561503231" 
    width="2" 
    rx="0.1"
  />

  <rect 
    class="c" 
    x="31.5" 
    y="29.376183942745595" 
    height="0.6238160572544065" 
    width="2"
    rx="0.1"
  />

  <rect 
    class="c" 
    x="33.75" 
    y="24.867262683402537" 
    height="5.1327373165974635"
    width="2"
    rx="0.1"
  />

  <text x="37.25" y="1" class="t">for of</text>

  <rect 
    class="c" 
    x="38.25" 
    y="29.856071851048807" 
    height="0.14392814895119396" 
    width="2" 
    rx="0.1"
  />

  <rect 
    class="c" 
    x="40.5" 
    y="28.848610721566633" 
    height="1.1513892784333681" 
    width="2"
    rx="0.1"
  />

  <rect 
    class="c" 
    x="42.75" 
    y="19.784603993218987" 
    height="10.215396006781015"
    width="2"
    rx="0.1"
  />

  <text x="46.25" y="1" class="t">map</text>

  <rect 
    class="c" 
    x="47.25" 
    y="29.635193756308055" 
    height="0.36480624369194425" 
    width="2" 
    rx="0.1"
  />

  <rect 
    class="c" 
    x="49.5" 
    y="27.122356403855207" 
    height="2.877643596144795" 
    width="2"
    rx="0.1"
  />

  <rect 
    class="c" 
    x="51.75" 
    y="2" 
    height="28"
    width="2"
    rx="0.1"
  />

</svg>
