
<svg class="chart" viewBox="0 0 96 32" xmlns="http://www.w3.org/2000/svg">
  <style>
    .chart .w {
      fill: none;
      stroke: #808080;
      stroke-width: 0.075;
    }
    .chart .t {
      font-size: 1.4px;
      font-weight: bold;
      fill: #808080;
      font-family: -apple-system, BlinkMacSystemFont, "Segoe UI", "Noto Sans", Helvetica, Arial, sans-serif, "Apple Costartr Emoji", "Segoe UI Emoji";
      transform: rotate(90deg);
      transform-box: fill-box;
      transform-origin: left;
    }
    .chart .un {
      font-size: 1.4px;
      font-weight: bold;
      fill: #2f81f7;
      font-family: -apple-system, BlinkMacSystemFont, "Segoe UI", "Noto Sans", Helvetica, Arial, sans-serif, "Apple Costartr Emoji", "Segoe UI Emoji";
    }
    .chart path {
      fill: none;
      stroke: #2f81f7;
      stroke-linejoin: round;
      stroke-linecap: round;
    }
  </style>

  <text class="un" x="83.5" y="7.5" >10.69 ms</text>
  <text class="un" x="83.5" y="15" >7.13 ms</text>
  <text class="un" x="83.5" y="22.5" >3.56 ms</text>

  <path class="w" d="
    M0,0 0,30 82.5,30
    M0,7.5 82.5,7.5
    M0,15 82.5,15
    M0,22.5 82.5,22.5
  "/>

  

  <text x="3.75" y="1" class="t">
    filter
  </text>

  <rect 
    fill="#5b9cfb" 
    x="6" 
    y="29.918056659656607" 
    height="0.08194334034339172" 
    width="2" 
    rx="0.1"
  />

  <rect 
    fill="#2f81f7"
    x="8.25" 
    y="29.3822809614803" 
    height="0.6177190385196987" 
    width="2"
    rx="0.1"
  />

  <rect 
    fill="#286aca"
    x="10.5" 
    y="24.911087841262958" 
    height="5.088912158737042"
    width="2"
    rx="0.1"
  />

  <text x="16.5" y="1" class="t">
    foreach
  </text>

  <rect 
    fill="#5b9cfb" 
    x="18.75" 
    y="29.93069672382106" 
    height="0.06930327617893779" 
    width="2" 
    rx="0.1"
  />

  <rect 
    fill="#2f81f7"
    x="21" 
    y="29.382311274647456" 
    height="0.6176887253525453" 
    width="2"
    rx="0.1"
  />

  <rect 
    fill="#286aca"
    x="23.25" 
    y="24.92747594456799" 
    height="5.072524055432008"
    width="2"
    rx="0.1"
  />

  <text x="29.25" y="1" class="t">
    for in
  </text>

  <rect 
    fill="#5b9cfb" 
    x="31.5" 
    y="29.98467181695713" 
    height="0.015328183042872092" 
    width="2" 
    rx="0.1"
  />

  <rect 
    fill="#2f81f7"
    x="33.75" 
    y="29.983700598018128" 
    height="0.016299401981871724" 
    width="2"
    rx="0.1"
  />

  <rect 
    fill="#286aca"
    x="36" 
    y="29.983380710630765" 
    height="0.016619289369235943"
    width="2"
    rx="0.1"
  />

  <text x="42" y="1" class="t">
    for
  </text>

  <rect 
    fill="#5b9cfb" 
    x="44.25" 
    y="29.91411431752927" 
    height="0.08588568247073317" 
    width="2" 
    rx="0.1"
  />

  <rect 
    fill="#2f81f7"
    x="46.5" 
    y="29.47626017035788" 
    height="0.5237398296421217" 
    width="2"
    rx="0.1"
  />

  <rect 
    fill="#286aca"
    x="48.75" 
    y="24.91884736085375" 
    height="5.081152639146249"
    width="2"
    rx="0.1"
  />

  <text x="54.75" y="1" class="t">
    for of
  </text>

  <rect 
    fill="#5b9cfb" 
    x="57" 
    y="29.850628043643848" 
    height="0.14937195635615086" 
    width="2" 
    rx="0.1"
  />

  <rect 
    fill="#2f81f7"
    x="59.25" 
    y="28.963372893285104" 
    height="1.036627106714897" 
    width="2"
    rx="0.1"
  />

  <rect 
    fill="#286aca"
    x="61.5" 
    y="19.793044918002813" 
    height="10.206955081997188"
    width="2"
    rx="0.1"
  />

  <text x="67.5" y="1" class="t">
    map
  </text>

  <rect 
    fill="#5b9cfb" 
    x="69.75" 
    y="29.640406101306226" 
    height="0.35959389869377323" 
    width="2" 
    rx="0.1"
  />

  <rect 
    fill="#2f81f7"
    x="72" 
    y="27.230492939880957" 
    height="2.7695070601190444" 
    width="2"
    rx="0.1"
  />

  <rect 
    fill="#286aca"
    x="74.25" 
    y="2" 
    height="28"
    width="2"
    rx="0.1"
  />

</svg>
