
<svg class="chart" viewBox="0 0 96 32" xmlns="http://www.w3.org/2000/svg">
  <style>
    .chart .bg {
      fill: #eee5;
    }
    .chart .w {
      fill: none;
      stroke: #30363d;
      stroke-width: 0.075;
    }
    .chart .c {
      fill: #2f81f7;
    }
    .chart .t {
      font-size: 1.4px;
      font-weight: bold;
      fill: #30363d;
      font-family: -apple-system, BlinkMacSystemFont, "Segoe UI", "Noto Sans", Helvetica, Arial, sans-serif, "Apple Color Emoji", "Segoe UI Emoji";
      transform: rotate(90deg);
      transform-box: fill-box;
      transform-origin: left;
    }
    .chart .un {
      font-size: 1.4px;
      font-weight: bold;
      fill: #2f81f7;
      font-family: -apple-system, BlinkMacSystemFont, "Segoe UI", "Noto Sans", Helvetica, Arial, sans-serif, "Apple Color Emoji", "Segoe UI Emoji";
    }
    .chart path {
      fill: none;
      stroke: #2f81f7;
      stroke-linejoin: round;
      stroke-linecap: round;
    }
  </style>

  <!--<rect class="bg" width="128" height="32" rx="0.15"/>
  <rect 
    class="w"
    x="0"
    y="2"
    width="56.25"
    height="29"
    rx="0.1"
  />-->

  <text class="un" x="57.25" y="7.5" >778.36 ms</text>
  <text class="un" x="57.25" y="15" >518.91 ms</text>
  <text class="un" x="57.25" y="22.5" >259.45 ms</text>

  <path class="w" d="
    M0
    ,0 0,30 56.25,30
    M0,7.5 56.25,7.5
    M0,15 56.25,15
    M0,22.5 56.25,22.5
  "/>

  

  <text x="1.25" y="1" class="t">filter</text>

  <rect 
    class="c" 
    x="2.25" 
    y="29.98891952639508" 
    height="0.011080473604918768" 
    width="2" 
    rx="0.1"
  />

  <rect 
    class="c" 
    x="4.5" 
    y="29.912928309641504" 
    height="0.08707169035849542" 
    width="2"
    rx="0.1"
  />

  <rect 
    class="c" 
    x="6.75" 
    y="29.396365286555824" 
    height="0.6036347134441772"
    width="2"
    rx="0.1"
  />

  <text x="10.25" y="1" class="t">foreach</text>

  <rect 
    class="c" 
    x="11.25" 
    y="29.98916338534516" 
    height="0.010836614654838235" 
    width="2" 
    rx="0.1"
  />

  <rect 
    class="c" 
    x="13.5" 
    y="29.918727285955445" 
    height="0.08127271404455412" 
    width="2"
    rx="0.1"
  />

  <rect 
    class="c" 
    x="15.75" 
    y="29.41469979314181" 
    height="0.5853002068581883"
    width="2"
    rx="0.1"
  />

  <text x="19.25" y="1" class="t">for in</text>

  <rect 
    class="c" 
    x="20.25" 
    y="29.67698079146356" 
    height="0.3230192085364409" 
    width="2" 
    rx="0.1"
  />

  <rect 
    class="c" 
    x="22.5" 
    y="27.124601790175383" 
    height="2.8753982098246182" 
    width="2"
    rx="0.1"
  />

  <rect 
    class="c" 
    x="24.75" 
    y="2" 
    height="28"
    width="2"
    rx="0.1"
  />

  <text x="28.25" y="1" class="t">for</text>

  <rect 
    class="c" 
    x="29.25" 
    y="29.989126087647954" 
    height="0.010873912352046138" 
    width="2" 
    rx="0.1"
  />

  <rect 
    class="c" 
    x="31.5" 
    y="29.95247511587662" 
    height="0.04752488412338122" 
    width="2"
    rx="0.1"
  />

  <rect 
    class="c" 
    x="33.75" 
    y="29.633235685655816" 
    height="0.3667643143441846"
    width="2"
    rx="0.1"
  />

  <text x="37.25" y="1" class="t">for of</text>

  <rect 
    class="c" 
    x="38.25" 
    y="29.983667437535935" 
    height="0.016332562464063193" 
    width="2" 
    rx="0.1"
  />

  <rect 
    class="c" 
    x="40.5" 
    y="29.920838572511503" 
    height="0.07916142748849539" 
    width="2"
    rx="0.1"
  />

  <rect 
    class="c" 
    x="42.75" 
    y="29.28242076311475" 
    height="0.7175792368852487"
    width="2"
    rx="0.1"
  />

  <text x="46.25" y="1" class="t">map</text>

  <rect 
    class="c" 
    x="47.25" 
    y="29.95912482359115" 
    height="0.04087517640885017" 
    width="2" 
    rx="0.1"
  />

  <rect 
    class="c" 
    x="49.5" 
    y="29.757682977659407" 
    height="0.24231702234059171" 
    width="2"
    rx="0.1"
  />

  <rect 
    class="c" 
    x="51.75" 
    y="27.713873806415968" 
    height="2.2861261935840314"
    width="2"
    rx="0.1"
  />

</svg>
