
<svg class="chart" viewBox="0 0 96 32" xmlns="http://www.w3.org/2000/svg">
  <style>
    .chart .bg {
      fill: #eee5;
    }
    .chart .w {
      fill: none;
      stroke: #808080;
      stroke-width: 0.075;
    }
    .chart .t {
      font-size: 1.4px;
      font-weight: bold;
      fill: #808080;
      font-family: -apple-system, BlinkMacSystemFont, "Segoe UI", "Noto Sans", Helvetica, Arial, sans-serif, "Apple Costartr Emoji", "Segoe UI Emoji";
      transform: rotate(90deg);
      transform-box: fill-box;
      transform-origin: left;
    }
    .chart .un {
      font-size: 1.4px;
      font-weight: bold;
      fill: #2f81f7;
      font-family: -apple-system, BlinkMacSystemFont, "Segoe UI", "Noto Sans", Helvetica, Arial, sans-serif, "Apple Costartr Emoji", "Segoe UI Emoji";
    }
    .chart path {
      fill: none;
      stroke: #2f81f7;
      stroke-linejoin: round;
      stroke-linecap: round;
    }
  </style>

  <!--<rect class="bg" width="128" height="32" rx="0.15"/>
  <rect 
    class="w"
    x="0"
    y="2"
    width="82.5"
    height="29"
    rx="0.1"
  />-->

  <text class="un" x="83.5" y="7.5" >10.61 ms</text>
  <text class="un" x="83.5" y="15" >7.07 ms</text>
  <text class="un" x="83.5" y="22.5" >3.54 ms</text>

  <path class="w" d="
    M0,0 0,30 82.5,30
    M0,7.5 82.5,7.5
    M0,15 82.5,15
    M0,22.5 82.5,22.5
  "/>

  

  <text x="3.75" y="1" class="t">
    filter
  </text>

  <rect 
    fill="#5b9cfb" 
    x="6" 
    y="29.9173488417758" 
    height="0.08265115822419937" 
    width="2" 
    rx="0.1"
  />

  <rect 
    fill="#2f81f7"
    x="8.25" 
    y="29.40336419539195" 
    height="0.5966358046080481" 
    width="2"
    rx="0.1"
  />

  <rect 
    fill="#286aca"
    x="10.5" 
    y="24.834300336952325" 
    height="5.1656996630476755"
    width="2"
    rx="0.1"
  />

  <text x="16.5" y="1" class="t">
    foreach
  </text>

  <rect 
    fill="#5b9cfb" 
    x="18.75" 
    y="29.917355979684007" 
    height="0.08264402031599127" 
    width="2" 
    rx="0.1"
  />

  <rect 
    fill="#2f81f7"
    x="21" 
    y="29.445709140522982" 
    height="0.5542908594770184" 
    width="2"
    rx="0.1"
  />

  <rect 
    fill="#286aca"
    x="23.25" 
    y="24.900219300976985" 
    height="5.099780699023013"
    width="2"
    rx="0.1"
  />

  <text x="29.25" y="1" class="t">
    for in
  </text>

  <rect 
    fill="#5b9cfb" 
    x="31.5" 
    y="29.982677397851706" 
    height="0.01732260214829465" 
    width="2" 
    rx="0.1"
  />

  <rect 
    fill="#2f81f7"
    x="33.75" 
    y="29.98964010640388" 
    height="0.010359893596119421" 
    width="2"
    rx="0.1"
  />

  <rect 
    fill="#286aca"
    x="36" 
    y="29.983350718425214" 
    height="0.016649281574786307"
    width="2"
    rx="0.1"
  />

  <text x="42" y="1" class="t">
    for
  </text>

  <rect 
    fill="#5b9cfb" 
    x="44.25" 
    y="29.91511725795275" 
    height="0.08488274204724876" 
    width="2" 
    rx="0.1"
  />

  <rect 
    fill="#2f81f7"
    x="46.5" 
    y="29.46724650268689" 
    height="0.5327534973131108" 
    width="2"
    rx="0.1"
  />

  <rect 
    fill="#286aca"
    x="48.75" 
    y="24.87772278334709" 
    height="5.122277216652912"
    width="2"
    rx="0.1"
  />

  <text x="54.75" y="1" class="t">
    for of
  </text>

  <rect 
    fill="#5b9cfb" 
    x="57" 
    y="29.847778548564143" 
    height="0.15222145143585716" 
    width="2" 
    rx="0.1"
  />

  <rect 
    fill="#2f81f7"
    x="59.25" 
    y="28.854626983034553" 
    height="1.1453730169654472" 
    width="2"
    rx="0.1"
  />

  <rect 
    fill="#286aca"
    x="61.5" 
    y="19.69847289423901" 
    height="10.30152710576099"
    width="2"
    rx="0.1"
  />

  <text x="67.5" y="1" class="t">
    map
  </text>

  <rect 
    fill="#5b9cfb" 
    x="69.75" 
    y="29.626123579390192" 
    height="0.3738764206098066" 
    width="2" 
    rx="0.1"
  />

  <rect 
    fill="#2f81f7"
    x="72" 
    y="27.217072828303" 
    height="2.7829271716970005" 
    width="2"
    rx="0.1"
  />

  <rect 
    fill="#286aca"
    x="74.25" 
    y="2" 
    height="28"
    width="2"
    rx="0.1"
  />

</svg>
