
<svg class="chart" viewBox="0 0 96 32" xmlns="http://www.w3.org/2000/svg">
  <style>
    .chart .bg {
      fill: #eee5;
    }
    .chart .w {
      fill: none;
      stroke: #30363d;
      stroke-width: 0.075;
    }
    .chart .c {
      fill: #2f81f7;
    }
    .chart .t {
      font-size: 1.4px;
      font-weight: bold;
      fill: #30363d;
      font-family: -apple-system, BlinkMacSystemFont, "Segoe UI", "Noto Sans", Helvetica, Arial, sans-serif, "Apple Color Emoji", "Segoe UI Emoji";
      transform: rotate(90deg);
      transform-box: fill-box;
      transform-origin: left;
    }
    .chart .un {
      font-size: 1.4px;
      font-weight: bold;
      fill: #2f81f7;
      font-family: -apple-system, BlinkMacSystemFont, "Segoe UI", "Noto Sans", Helvetica, Arial, sans-serif, "Apple Color Emoji", "Segoe UI Emoji";
    }
    .chart path {
      fill: none;
      stroke: #2f81f7;
      stroke-linejoin: round;
      stroke-linecap: round;
    }
  </style>

  <!--<rect class="bg" width="128" height="32" rx="0.15"/>
  <rect 
    class="w"
    x="0"
    y="2"
    width="20.25"
    height="29"
    rx="0.1"
  />-->

  <text class="un" x="21.25" y="7.5" >2.70 ms</text>
  <text class="un" x="21.25" y="15" >1.80 ms</text>
  <text class="un" x="21.25" y="22.5" >899 μs</text>

  <path class="w" d="
    M0
    ,0 0,30 20.25,30
    M0,7.5 20.25,7.5
    M0,15 20.25,15
    M0,22.5 20.25,22.5
  "/>

  

  <text x="1.25" y="1" class="t">for key</text>

  <rect 
    class="c" 
    x="2.25" 
    y="25.345520185137048" 
    height="4.654479814862952" 
    width="2" 
    rx="0.1"
  />

  <rect 
    class="c" 
    x="4.5" 
    y="24.326989152819927" 
    height="5.673010847180074" 
    width="2"
    rx="0.1"
  />

  <rect 
    class="c" 
    x="6.75" 
    y="13.495342629550315" 
    height="16.504657370449685"
    width="2"
    rx="0.1"
  />

  <text x="10.25" y="1" class="t">object values</text>

  <rect 
    class="c" 
    x="11.25" 
    y="18.70552073931413" 
    height="11.29447926068587" 
    width="2" 
    rx="0.1"
  />

  <rect 
    class="c" 
    x="13.5" 
    y="14.984062408646329" 
    height="15.015937591353671" 
    width="2"
    rx="0.1"
  />

  <rect 
    class="c" 
    x="15.75" 
    y="2" 
    height="28"
    width="2"
    rx="0.1"
  />

</svg>
