
<svg class="chart" viewBox="0 0 96 32" xmlns="http://www.w3.org/2000/svg">
  <style>
    .chart .bg {
      fill: #eee5;
    }
    .chart .w {
      fill: none;
      stroke: #808080;
      stroke-width: 0.075;
    }
    .chart .t {
      font-size: 1.4px;
      font-weight: bold;
      fill: #808080;
      font-family: -apple-system, BlinkMacSystemFont, "Segoe UI", "Noto Sans", Helvetica, Arial, sans-serif, "Apple Costartr Emoji", "Segoe UI Emoji";
      transform: rotate(90deg);
      transform-box: fill-box;
      transform-origin: left;
    }
    .chart .un {
      font-size: 1.4px;
      font-weight: bold;
      fill: #2f81f7;
      font-family: -apple-system, BlinkMacSystemFont, "Segoe UI", "Noto Sans", Helvetica, Arial, sans-serif, "Apple Costartr Emoji", "Segoe UI Emoji";
    }
    .chart path {
      fill: none;
      stroke: #2f81f7;
      stroke-linejoin: round;
      stroke-linecap: round;
    }
  </style>

  <!--<rect class="bg" width="128" height="32" rx="0.15"/>
  <rect 
    class="w"
    x="0"
    y="2"
    width="73.5"
    height="29"
    rx="0.1"
  />-->

  <text class="un" x="74.5" y="7.5" >2.59 ms</text>
  <text class="un" x="74.5" y="15" >1.73 ms</text>
  <text class="un" x="74.5" y="22.5" >863 μs</text>

  <path class="w" d="
    M0,0 0,30 73.5,30
    M0,7.5 73.5,7.5
    M0,15 73.5,15
    M0,22.5 73.5,22.5
  "/>

  

  <text x="17.75" y="1" class="t">
    for key
  </text>

  <rect 
    fill="#5b9cfb" 
    x="20" 
    y="26.243060246302647" 
    height="3.756939753697353" 
    width="2" 
    rx="0.1"
  />

  <rect 
    fill="#2f81f7"
    x="22.25" 
    y="24.93361865767367" 
    height="5.06638134232633" 
    width="2"
    rx="0.1"
  />

  <rect 
    fill="#286aca"
    x="24.5" 
    y="16.358888383467594" 
    height="13.641111616532404"
    width="2"
    rx="0.1"
  />

  <text x="44.5" y="1" class="t">
    object values
  </text>

  <rect 
    fill="#5b9cfb" 
    x="46.75" 
    y="19.080810465676624" 
    height="10.919189534323376" 
    width="2" 
    rx="0.1"
  />

  <rect 
    fill="#2f81f7"
    x="49" 
    y="15.912306028657266" 
    height="14.087693971342734" 
    width="2"
    rx="0.1"
  />

  <rect 
    fill="#286aca"
    x="51.25" 
    y="2" 
    height="28"
    width="2"
    rx="0.1"
  />

</svg>
