
<svg class="chart" viewBox="0 0 96 32" xmlns="http://www.w3.org/2000/svg">
  <style>
    .chart .bg {
      fill: #eee5;
    }
    .chart .w {
      fill: none;
      stroke: #30363d;
      stroke-width: 0.075;
    }
    .chart .c {
      fill: #2f81f7;
    }
    .chart .t {
      font-size: 1.4px;
      font-weight: bold;
      fill: #30363d;
      font-family: -apple-system, BlinkMacSystemFont, "Segoe UI", "Noto Sans", Helvetica, Arial, sans-serif, "Apple Color Emoji", "Segoe UI Emoji";
      transform: rotate(90deg);
      transform-box: fill-box;
      transform-origin: left;
    }
    .chart .un {
      font-size: 1.4px;
      font-weight: bold;
      fill: #2f81f7;
      font-family: -apple-system, BlinkMacSystemFont, "Segoe UI", "Noto Sans", Helvetica, Arial, sans-serif, "Apple Color Emoji", "Segoe UI Emoji";
    }
    .chart path {
      fill: none;
      stroke: #2f81f7;
      stroke-linejoin: round;
      stroke-linecap: round;
    }
  </style>

  <!--<rect class="bg" width="128" height="32" rx="0.15"/>
  <rect 
    class="w"
    x="0"
    y="2"
    width="29.25"
    height="29"
    rx="0.1"
  />-->

  <text class="un" x="30.25" y="7.5" >3.18 ms</text>
  <text class="un" x="30.25" y="15" >2.12 ms</text>
  <text class="un" x="30.25" y="22.5" >1.06 ms</text>

  <path class="w" d="
    M0
    ,0 0,30 29.25,30
    M0,7.5 29.25,7.5
    M0,15 29.25,15
    M0,22.5 29.25,22.5
  "/>

  

  <text x="1.25" y="1" class="t">array join</text>

  <rect 
    class="c" 
    x="2.25" 
    y="6.851150065109021" 
    height="23.14884993489098" 
    width="2" 
    rx="0.1"
  />

  <rect 
    class="c" 
    x="4.5" 
    y="5.589758532593706" 
    height="24.410241467406294" 
    width="2"
    rx="0.1"
  />

  <rect 
    class="c" 
    x="6.75" 
    y="2" 
    height="28"
    width="2"
    rx="0.1"
  />

  <text x="10.25" y="1" class="t">backticks</text>

  <rect 
    class="c" 
    x="11.25" 
    y="28.49888335929276" 
    height="1.5011166407072412" 
    width="2" 
    rx="0.1"
  />

  <rect 
    class="c" 
    x="13.5" 
    y="28.47479129287821" 
    height="1.5252087071217917" 
    width="2"
    rx="0.1"
  />

  <rect 
    class="c" 
    x="15.75" 
    y="28.242481281960238" 
    height="1.7575187180397618"
    width="2"
    rx="0.1"
  />

  <text x="19.25" y="1" class="t">concatenation</text>

  <rect 
    class="c" 
    x="20.25" 
    y="29.913487904057707" 
    height="0.08651209594229323" 
    width="2" 
    rx="0.1"
  />

  <rect 
    class="c" 
    x="22.5" 
    y="29.913255228363226" 
    height="0.08674477163677424" 
    width="2"
    rx="0.1"
  />

  <rect 
    class="c" 
    x="24.75" 
    y="29.913311897287933" 
    height="0.08668810271206596"
    width="2"
    rx="0.1"
  />

</svg>
