
<svg class="chart" viewBox="0 0 96 32" xmlns="http://www.w3.org/2000/svg">
  <style>
    .chart .bg {
      fill: #eee5;
    }
    .chart .w {
      fill: none;
      stroke: #30363d;
      stroke-width: 0.075;
    }
    .chart .c {
      fill: #2f81f7;
    }
    .chart .t {
      font-size: 1.4px;
      font-weight: bold;
      fill: #30363d;
      font-family: -apple-system, BlinkMacSystemFont, "Segoe UI", "Noto Sans", Helvetica, Arial, sans-serif, "Apple Color Emoji", "Segoe UI Emoji";
      transform: rotate(90deg);
      transform-box: fill-box;
      transform-origin: left;
    }
    .chart .un {
      font-size: 1.4px;
      font-weight: bold;
      fill: #2f81f7;
      font-family: -apple-system, BlinkMacSystemFont, "Segoe UI", "Noto Sans", Helvetica, Arial, sans-serif, "Apple Color Emoji", "Segoe UI Emoji";
    }
    .chart path {
      fill: none;
      stroke: #2f81f7;
      stroke-linejoin: round;
      stroke-linecap: round;
    }
  </style>

  <!--<rect class="bg" width="128" height="32" rx="0.15"/>
  <rect 
    class="w"
    x="0"
    y="2"
    width="29.25"
    height="29"
    rx="0.1"
  />-->

  <text class="un" x="30.25" y="7.5" >3.74 ms</text>
  <text class="un" x="30.25" y="15" >2.49 ms</text>
  <text class="un" x="30.25" y="22.5" >1.25 ms</text>

  <path class="w" d="
    M0
    ,0 0,30 29.25,30
    M0,7.5 29.25,7.5
    M0,15 29.25,15
    M0,22.5 29.25,22.5
  "/>

  

  <text x="1.25" y="1" class="t">array join</text>

  <rect 
    class="c" 
    x="2.25" 
    y="4.9354247158813" 
    height="25.0645752841187" 
    width="2" 
    rx="0.1"
  />

  <rect 
    class="c" 
    x="4.5" 
    y="4.126663944862706" 
    height="25.873336055137294" 
    width="2"
    rx="0.1"
  />

  <rect 
    class="c" 
    x="6.75" 
    y="2" 
    height="28"
    width="2"
    rx="0.1"
  />

  <text x="10.25" y="1" class="t">backticks</text>

  <rect 
    class="c" 
    x="11.25" 
    y="25.368506161148616" 
    height="4.631493838851383" 
    width="2" 
    rx="0.1"
  />

  <rect 
    class="c" 
    x="13.5" 
    y="26.71191721444624" 
    height="3.2880827855537604" 
    width="2"
    rx="0.1"
  />

  <rect 
    class="c" 
    x="15.75" 
    y="26.68838116456853" 
    height="3.3116188354314717"
    width="2"
    rx="0.1"
  />

  <text x="19.25" y="1" class="t">concatenation</text>

  <rect 
    class="c" 
    x="20.25" 
    y="29.8595939787455" 
    height="0.1404060212544988" 
    width="2" 
    rx="0.1"
  />

  <rect 
    class="c" 
    x="22.5" 
    y="29.848304228597183" 
    height="0.15169577140281754" 
    width="2"
    rx="0.1"
  />

  <rect 
    class="c" 
    x="24.75" 
    y="29.806970748648975" 
    height="0.1930292513510241"
    width="2"
    rx="0.1"
  />

</svg>
