
<svg class="chart" viewBox="0 0 96 32" xmlns="http://www.w3.org/2000/svg">
  <style>
    .chart .bg {
      fill: #eee5;
    }
    .chart .w {
      fill: none;
      stroke: #30363d;
      stroke-width: 0.075;
    }
    .chart .c {
      fill: #2f81f7;
    }
    .chart .t {
      font-size: 1.4px;
      font-weight: bold;
      fill: #30363d;
      font-family: -apple-system, BlinkMacSystemFont, "Segoe UI", "Noto Sans", Helvetica, Arial, sans-serif, "Apple Color Emoji", "Segoe UI Emoji";
      transform: rotate(90deg);
      transform-box: fill-box;
      transform-origin: left;
    }
    .chart .un {
      font-size: 1.4px;
      font-weight: bold;
      fill: #2f81f7;
      font-family: -apple-system, BlinkMacSystemFont, "Segoe UI", "Noto Sans", Helvetica, Arial, sans-serif, "Apple Color Emoji", "Segoe UI Emoji";
    }
    .chart path {
      fill: none;
      stroke: #2f81f7;
      stroke-linejoin: round;
      stroke-linecap: round;
    }
  </style>

  <!--<rect class="bg" width="128" height="32" rx="0.15"/>
  <rect 
    class="w"
    x="0"
    y="2"
    width="29.25"
    height="29"
    rx="0.1"
  />-->

  <text class="un" x="30.25" y="7.5" >992 μs</text>
  <text class="un" x="30.25" y="15" >661 μs</text>
  <text class="un" x="30.25" y="22.5" >331 μs</text>

  <path class="w" d="
    M0
    ,0 0,30 29.25,30
    M0,7.5 29.25,7.5
    M0,15 29.25,15
    M0,22.5 29.25,22.5
  "/>

  

  <text x="2.25" y="1" class="t">array join</text>

  <rect 
    class="c" 
    x="2.25" 
    y="4.644741209264268" 
    height="25.355258790735732" 
    width="2" 
    rx="0.1"
  />

  <rect 
    class="c" 
    x="4.5" 
    y="3.9064833187431667" 
    height="26.093516681256833" 
    width="2"
    rx="0.1"
  />

  <rect 
    class="c" 
    x="6.75" 
    y="2.0000000000000036" 
    height="27.999999999999996"
    width="2"
    rx="0.1"
  />

  <text x="11.25" y="1" class="t">backticks</text>

  <rect 
    class="c" 
    x="11.25" 
    y="26.030870848749345" 
    height="3.9691291512506566" 
    width="2" 
    rx="0.1"
  />

  <rect 
    class="c" 
    x="13.5" 
    y="27.479031495809103" 
    height="2.520968504190898" 
    width="2"
    rx="0.1"
  />

  <rect 
    class="c" 
    x="15.75" 
    y="27.003554124527923" 
    height="2.9964458754720784"
    width="2"
    rx="0.1"
  />

  <text x="20.25" y="1" class="t">concatenation</text>

  <rect 
    class="c" 
    x="20.25" 
    y="29.825964542554324" 
    height="0.17403545744567633" 
    width="2" 
    rx="0.1"
  />

  <rect 
    class="c" 
    x="22.5" 
    y="29.760110439374397" 
    height="0.23988956062560093" 
    width="2"
    rx="0.1"
  />

  <rect 
    class="c" 
    x="24.75" 
    y="29.79133358169446" 
    height="0.20866641830553903"
    width="2"
    rx="0.1"
  />

</svg>
