
<svg class="chart" viewBox="0 0 96 32" xmlns="http://www.w3.org/2000/svg">
  <style>
    .chart .bg {
      fill: #eee5;
    }
    .chart .w {
      fill: none;
      stroke: #808080;
      stroke-width: 0.075;
    }
    .chart .t {
      font-size: 1.4px;
      font-weight: bold;
      fill: #808080;
      font-family: -apple-system, BlinkMacSystemFont, "Segoe UI", "Noto Sans", Helvetica, Arial, sans-serif, "Apple Costartr Emoji", "Segoe UI Emoji";
      transform: rotate(90deg);
      transform-box: fill-box;
      transform-origin: left;
    }
    .chart .un {
      font-size: 1.4px;
      font-weight: bold;
      fill: #2f81f7;
      font-family: -apple-system, BlinkMacSystemFont, "Segoe UI", "Noto Sans", Helvetica, Arial, sans-serif, "Apple Costartr Emoji", "Segoe UI Emoji";
    }
    .chart path {
      fill: none;
      stroke: #2f81f7;
      stroke-linejoin: round;
      stroke-linecap: round;
    }
  </style>

  <!--<rect class="bg" width="128" height="32" rx="0.15"/>
  <rect 
    class="w"
    x="0"
    y="2"
    width="72.25"
    height="29"
    rx="0.1"
  />-->

  <text class="un" x="73.25" y="7.5" >3.07 ms</text>
  <text class="un" x="73.25" y="15" >2.04 ms</text>
  <text class="un" x="73.25" y="22.5" >1.02 ms</text>

  <path class="w" d="
    M0,0 0,30 72.25,30
    M0,7.5 72.25,7.5
    M0,15 72.25,15
    M0,22.5 72.25,22.5
  "/>

  

  <text x="10.75" y="1" class="t">
    array join
  </text>

  <rect 
    fill="#5b9cfb" 
    x="13" 
    y="5.5391451837119625" 
    height="24.460854816288037" 
    width="2" 
    rx="0.1"
  />

  <rect 
    fill="#2f81f7"
    x="15.25" 
    y="3.6622146306736454" 
    height="26.337785369326355" 
    width="2"
    rx="0.1"
  />

  <rect 
    fill="#286aca"
    x="17.5" 
    y="2" 
    height="28"
    width="2"
    rx="0.1"
  />

  <text x="30.5" y="1" class="t">
    backticks
  </text>

  <rect 
    fill="#5b9cfb" 
    x="32.75" 
    y="28.101939861931616" 
    height="1.8980601380683841" 
    width="2" 
    rx="0.1"
  />

  <rect 
    fill="#2f81f7"
    x="35" 
    y="28.115860404543824" 
    height="1.8841395954561744" 
    width="2"
    rx="0.1"
  />

  <rect 
    fill="#286aca"
    x="37.25" 
    y="28.139891885180127" 
    height="1.860108114819874"
    width="2"
    rx="0.1"
  />

  <text x="50.25" y="1" class="t">
    concatenation
  </text>

  <rect 
    fill="#5b9cfb" 
    x="52.5" 
    y="29.893421276864007" 
    height="0.10657872313599369" 
    width="2" 
    rx="0.1"
  />

  <rect 
    fill="#2f81f7"
    x="54.75" 
    y="29.893521928351014" 
    height="0.10647807164898603" 
    width="2"
    rx="0.1"
  />

  <rect 
    fill="#286aca"
    x="57" 
    y="29.89343090258589" 
    height="0.1065690974141082"
    width="2"
    rx="0.1"
  />

</svg>
