
<svg class="chart" viewBox="0 0 96 32" xmlns="http://www.w3.org/2000/svg">
  <style>
    .chart .bg {
      fill: #eee5;
    }
    .chart .w {
      fill: none;
      stroke: #808080;
      stroke-width: 0.075;
    }
    .chart .c {
      fill: #2f81f7;
    }
    .chart .t {
      font-size: 1.4px;
      font-weight: bold;
      fill: #808080;
      font-family: -apple-system, BlinkMacSystemFont, "Segoe UI", "Noto Sans", Helvetica, Arial, sans-serif, "Apple Costartr Emoji", "Segoe UI Emoji";
      transform: rotate(90deg);
      transform-box: fill-box;
      transform-origin: left;
    }
    .chart .un {
      font-size: 1.4px;
      font-weight: bold;
      fill: #2f81f7;
      font-family: -apple-system, BlinkMacSystemFont, "Segoe UI", "Noto Sans", Helvetica, Arial, sans-serif, "Apple Costartr Emoji", "Segoe UI Emoji";
    }
    .chart path {
      fill: none;
      stroke: #2f81f7;
      stroke-linejoin: round;
      stroke-linecap: round;
    }
  </style>

  <!--<rect class="bg" width="128" height="32" rx="0.15"/>
  <rect 
    class="w"
    x="0"
    y="2"
    width="72.25"
    height="29"
    rx="0.1"
  />-->

  <text class="un" x="73.25" y="7.5" >3.11 ms</text>
  <text class="un" x="73.25" y="15" >2.07 ms</text>
  <text class="un" x="73.25" y="22.5" >1.04 ms</text>

  <path class="w" d="
    M0,0 0,30 72.25,30
    M0,7.5 72.25,7.5
    M0,15 72.25,15
    M0,22.5 72.25,22.5
  "/>

  

  <text x="12.75" y="1" class="t">
    array join
  </text>

  <rect 
    class="c" 
    x="13" 
    y="6.751431424561137" 
    height="23.248568575438863" 
    width="2" 
    rx="0.1"
  />

  <rect 
    class="c" 
    x="15.25" 
    y="5.5194426554412175" 
    height="24.480557344558783" 
    width="2"
    rx="0.1"
  />

  <rect 
    class="c" 
    x="17.5" 
    y="2" 
    height="28"
    width="2"
    rx="0.1"
  />

  <text x="32.5" y="1" class="t">
    backticks
  </text>

  <rect 
    class="c" 
    x="32.75" 
    y="28.197611514899283" 
    height="1.8023884851007175" 
    width="2" 
    rx="0.1"
  />

  <rect 
    class="c" 
    x="35" 
    y="28.230762640147617" 
    height="1.7692373598523825" 
    width="2"
    rx="0.1"
  />

  <rect 
    class="c" 
    x="37.25" 
    y="28.22061007013665" 
    height="1.7793899298633509"
    width="2"
    rx="0.1"
  />

  <text x="52.25" y="1" class="t">
    concatenation
  </text>

  <rect 
    class="c" 
    x="52.5" 
    y="29.899294763928964" 
    height="0.10070523607103649" 
    width="2" 
    rx="0.1"
  />

  <rect 
    class="c" 
    x="54.75" 
    y="29.89936032221252" 
    height="0.10063967778748031" 
    width="2"
    rx="0.1"
  />

  <rect 
    class="c" 
    x="57" 
    y="29.899346101042976" 
    height="0.10065389895702431"
    width="2"
    rx="0.1"
  />

</svg>
